<?xml version="1.0" encoding="UTF-8" standalone="no"?>
<!-- Created with Inkscape (http://www.inkscape.org/) -->

<svg
   width="210mm"
   height="297mm"
   viewBox="0 0 210 297"
   version="1.1"
   id="svg5"
   sodipodi:docname="4szog.svg"
   inkscape:version="1.2 (dc2aedaf03, 2022-05-15)"
   xmlns:inkscape="http://www.inkscape.org/namespaces/inkscape"
   xmlns:sodipodi="http://sodipodi.sourceforge.net/DTD/sodipodi-0.dtd"
   xmlns="http://www.w3.org/2000/svg"
   xmlns:svg="http://www.w3.org/2000/svg">
  <sodipodi:namedview
     id="namedview7"
     pagecolor="#ffffff"
     bordercolor="#000000"
     borderopacity="0.25"
     inkscape:showpageshadow="2"
     inkscape:pageopacity="0.0"
     inkscape:pagecheckerboard="0"
     inkscape:deskcolor="#d1d1d1"
     inkscape:document-units="mm"
     showgrid="false"
     inkscape:zoom="1.0544998"
     inkscape:cx="513.03947"
     inkscape:cy="808.91435"
     inkscape:window-width="1920"
     inkscape:window-height="1017"
     inkscape:window-x="-8"
     inkscape:window-y="-8"
     inkscape:window-maximized="1"
     inkscape:current-layer="layer1" />
  <defs
     id="defs2" />
  <g
     inkscape:label="Réteg 1"
     inkscape:groupmode="layer"
     id="layer1">
    <path
       style="fill:#000000;stroke:#000000;stroke-width:0.547"
       id="path184"
       sodipodi:type="arc"
       sodipodi:cx="54.520515"
       sodipodi:cy="-53.359703"
       sodipodi:rx="20"
       sodipodi:ry="20"
       sodipodi:start="0"
       sodipodi:end="4.712389"
       sodipodi:arc-type="slice"
       d="m 74.520515,-53.359703 a 20,20 0 0 1 -12.346331,18.477591 20,20 0 0 1 -21.795804,-4.335456 20,20 0 0 1 -4.335455,-21.795804 20,20 0 0 1 18.47759,-12.346331 v 20 z"
       transform="rotate(90.326279)" />
    <path
       style="fill:#000000;stroke:#000000;stroke-width:0.547"
       id="path184-2"
       sodipodi:type="arc"
       sodipodi:cx="53.580811"
       sodipodi:cy="114.96758"
       sodipodi:rx="20"
       sodipodi:ry="20"
       sodipodi:start="0"
       sodipodi:end="4.712389"
       sodipodi:arc-type="slice"
       d="M 73.580811,114.96758 A 20,20 0 0 1 61.234479,133.44517 20,20 0 0 1 39.438675,129.10972 20,20 0 0 1 35.10322,107.31391 20,20 0 0 1 53.580811,94.967583 v 19.999997 z" />
    <path
       style="fill:#000000;stroke:#000000;stroke-width:0.547"
       id="path184-2-3"
       sodipodi:type="arc"
       sodipodi:cx="168.88948"
       sodipodi:cy="57.909698"
       sodipodi:rx="20"
       sodipodi:ry="20"
       sodipodi:start="0"
       sodipodi:end="5.2855394"
       sodipodi:arc-type="slice"
       d="m 188.88948,57.909698 a 20,20 0 0 1 -15.06333,19.381158 20,20 0 0 1 -22.49959,-9.813312 20,20 0 0 1 3.956,-24.22567 20,20 0 0 1 24.45255,-2.14611 l -10.84563,16.803934 z"
       transform="rotate(57.752574)" />
    <path
       style="fill:#000000;stroke:#000000;stroke-width:0.547"
       id="path184-2-6"
       sodipodi:type="arc"
       sodipodi:cx="-128.98828"
       sodipodi:cy="225.9211"
       sodipodi:rx="20"
       sodipodi:ry="20"
       sodipodi:start="6.0202923"
       sodipodi:end="5.2359878"
       sodipodi:arc-type="slice"
       d="m -109.67544,220.72359 a 20,20 0 0 1 -10.45236,23.1277 20,20 0 0 1 -24.72089,-5.74629 20,20 0 0 1 0.82001,-25.36671 20,20 0 0 1 25.0404,-4.1377 l -10,17.32051 z"
       transform="rotate(-48.73365)"
       inkscape:transform-center-x="0.28579553"
       inkscape:transform-center-y="-0.022476137" />
    <path
       style="fill:#000000;stroke:#000000;stroke-width:0.547"
       id="path184-2-4"
       sodipodi:type="arc"
       sodipodi:cx="-131.64079"
       sodipodi:cy="-169.66589"
       sodipodi:rx="20"
       sodipodi:ry="20"
       sodipodi:start="0"
       sodipodi:end="5.2359878"
       sodipodi:arc-type="slice"
       d="m -111.64079,-169.66589 a 20,20 0 0 1 -14.82362,19.31851 20,20 0 0 1 -22.49689,-9.31851 20,20 0 0 1 3.17837,-24.14214 20,20 0 0 1 24.14214,-3.17837 l -10,17.32051 z"
       transform="rotate(-178.60231)" />
    <path
       style="fill:#000000;stroke:#000000;stroke-width:0.547"
       id="path184-1"
       sodipodi:type="arc"
       sodipodi:cx="-112.99729"
       sodipodi:cy="114.80279"
       sodipodi:rx="20"
       sodipodi:ry="20"
       sodipodi:start="0"
       sodipodi:end="4.712389"
       sodipodi:arc-type="slice"
       d="m -92.997292,114.80279 a 20,20 0 0 1 -12.346328,18.47759 20,20 0 0 1 -21.79581,-4.33546 20,20 0 0 1 -4.33545,-21.7958 20,20 0 0 1 18.47759,-12.346332 v 20.000002 z"
       transform="rotate(-89.367401)" />
    <path
       style="fill:#000000;stroke:#000000;stroke-width:0.547"
       id="path184-9"
       sodipodi:type="arc"
       sodipodi:cx="-114.85182"
       sodipodi:cy="-53.517639"
       sodipodi:rx="20"
       sodipodi:ry="20"
       sodipodi:start="0"
       sodipodi:end="4.712389"
       sodipodi:arc-type="slice"
       d="m -94.851822,-53.517639 a 20,20 0 0 1 -12.346328,18.477591 20,20 0 0 1 -21.79581,-4.335456 20,20 0 0 1 -4.33545,-21.795804 20,20 0 0 1 18.47759,-12.346331 v 20 z"
       transform="rotate(-179.15064)" />
    <rect
       style="fill:#f9f9f9;stroke:#000000;stroke-width:0.547"
       id="rect546-0"
       width="60"
       height="60"
       x="89.362488"
       y="-31.849756"
       transform="rotate(46.256424)" />
    <rect
       style="fill:#ffffff;stroke:none;stroke-width:0.547"
       id="rect546"
       width="60"
       height="60"
       x="53.329735"
       y="55.10392" />
    <path
       sodipodi:type="star"
       style="fill:#ffffff;stroke:#000000;stroke-width:0.547;stroke-opacity:1"
       id="path4413-5"
       inkscape:flatsided="true"
       sodipodi:sides="3"
       sodipodi:cx="112.65808"
       sodipodi:cy="226.82159"
       sodipodi:r1="49.525745"
       sodipodi:r2="45.755821"
       sodipodi:arg1="0.75315128"
       sodipodi:arg2="1.8003488"
       inkscape:rounded="0"
       inkscape:randomized="0"
       d="M 148.78895,260.69429 65.25803,241.1755 123.92726,178.59499 Z"
       inkscape:transform-center-x="8.2767744"
       inkscape:transform-center-y="-8.8285737"
       transform="rotate(106.3886,106.84106,205.17561)" />
    <path
       sodipodi:type="star"
       style="fill:#ffffff;stroke:none;stroke-width:0.547;stroke-opacity:1"
       id="path4413"
       inkscape:flatsided="true"
       sodipodi:sides="3"
       sodipodi:cx="112.65808"
       sodipodi:cy="226.82159"
       sodipodi:r1="49.525745"
       sodipodi:r2="45.755821"
       sodipodi:arg1="0.75315128"
       sodipodi:arg2="1.8003488"
       inkscape:rounded="0"
       inkscape:randomized="0"
       d="M 148.78895,260.69429 65.25803,241.1755 123.92726,178.59499 Z"
       inkscape:transform-center-x="1.574259"
       inkscape:transform-center-y="21.154118"
       transform="rotate(46.148003,133.00258,179.35079)" />
  </g>
</svg>
