<?xml version="1.0" encoding="UTF-8" standalone="no"?>
<!-- Created with Inkscape (http://www.inkscape.org/) -->

<svg
   width="210mm"
   height="297mm"
   viewBox="0 0 210 297"
   version="1.1"
   id="svg6260"
   inkscape:version="1.2 (dc2aedaf03, 2022-05-15)"
   sodipodi:docname="Comore.svg"
   xmlns:inkscape="http://www.inkscape.org/namespaces/inkscape"
   xmlns:sodipodi="http://sodipodi.sourceforge.net/DTD/sodipodi-0.dtd"
   xmlns="http://www.w3.org/2000/svg"
   xmlns:svg="http://www.w3.org/2000/svg">
  <sodipodi:namedview
     id="namedview6262"
     pagecolor="#ffffff"
     bordercolor="#000000"
     borderopacity="0.25"
     inkscape:showpageshadow="2"
     inkscape:pageopacity="0.0"
     inkscape:pagecheckerboard="0"
     inkscape:deskcolor="#d1d1d1"
     inkscape:document-units="mm"
     showgrid="false"
     inkscape:zoom="0.5946522"
     inkscape:cx="353.1476"
     inkscape:cy="417.0505"
     inkscape:window-width="1280"
     inkscape:window-height="961"
     inkscape:window-x="-8"
     inkscape:window-y="-8"
     inkscape:window-maximized="1"
     inkscape:current-layer="layer1" />
  <defs
     id="defs6257" />
  <g
     inkscape:label="Réteg 1"
     inkscape:groupmode="layer"
     id="layer1">
    <rect
       style="fill:#ffc61e;fill-opacity:1;fill-rule:evenodd;stroke-width:0.499999"
       id="rect6381"
       width="145.49472"
       height="18.687397"
       x="42.269104"
       y="50.277988" />
    <rect
       style="fill:#ffffff;fill-opacity:1;fill-rule:evenodd;stroke-width:0.499999"
       id="rect10326"
       width="145.49472"
       height="18.242453"
       x="42.269104"
       y="68.965385" />
    <rect
       style="fill:#ce1126;fill-opacity:1;fill-rule:evenodd;stroke-width:0.499999"
       id="rect10489"
       width="145.49472"
       height="18.687395"
       x="42.269104"
       y="87.20784" />
    <rect
       style="fill:#3a75c4;fill-opacity:1;fill-rule:evenodd;stroke-width:0.499999"
       id="rect12102"
       width="145.49472"
       height="17.352581"
       x="42.269104"
       y="105.89523" />
    <path
       sodipodi:type="star"
       style="fill:#3d8e33;fill-opacity:1;fill-rule:evenodd;stroke-width:0.499999"
       id="path15216"
       inkscape:flatsided="false"
       sodipodi:sides="3"
       sodipodi:cx="15.12789"
       sodipodi:cy="50.277988"
       sodipodi:r1="67.25779"
       sodipodi:r2="33.628895"
       sodipodi:arg1="0.97361969"
       sodipodi:arg2="2.0208172"
       inkscape:rounded="0"
       inkscape:randomized="0"
       d="M 52.947618,105.89524 0.49984738,80.558724 -51.947925,55.222209 -3.7819755,22.469364 44.383977,-10.283481 l 4.28182,58.089358 z"
       inkscape:transform-center-x="-18.936156"
       inkscape:transform-center-y="9.940328"
       transform="matrix(0.25812949,0.52273578,-0.53754241,0.35838902,85.443809,58.07519)" />
    <path
       id="path16977"
       style="fill:#e6e6e6;fill-opacity:1;fill-rule:evenodd;stroke-width:0.445367"
       d="M 67.903539,65.430675 A 19.184101,15.708423 0 0 0 51.313825,80.990883 19.184101,15.708423 0 0 0 67.903539,96.551538 14.67595,17.793612 0 0 1 60.330156,80.990883 14.67595,17.793612 0 0 1 67.903539,65.430675 Z" />
    <path
       sodipodi:type="star"
       style="fill:#e6e6e6;fill-opacity:1;fill-rule:evenodd;stroke-width:0.499999"
       id="path17190"
       inkscape:flatsided="false"
       sodipodi:sides="5"
       sodipodi:cx="83.425865"
       sodipodi:cy="77.196732"
       sodipodi:r1="11.913589"
       sodipodi:r2="5.9567943"
       sodipodi:arg1="0.82573662"
       sodipodi:arg2="1.4540551"
       inkscape:rounded="0"
       inkscape:randomized="0"
       d="m 91.503465,85.953784 -7.383775,-2.840803 -6.526161,4.472083 0.420053,-7.900244 -6.269899,-4.824799 7.643382,-2.041815 2.651151,-7.453973 4.303817,6.638332 7.9084,0.21799 -4.983477,6.144531 z"
       inkscape:transform-center-x="-0.10559567"
       inkscape:transform-center-y="-0.15733295"
       transform="matrix(0.2271065,0.05616222,-0.05551346,0.22448304,53.136844,48.596353)" />
    <path
       sodipodi:type="star"
       style="fill:#e6e6e6;fill-opacity:1;fill-rule:evenodd;stroke-width:0.499999"
       id="path17190-6"
       inkscape:flatsided="false"
       sodipodi:sides="5"
       sodipodi:cx="83.425865"
       sodipodi:cy="77.196732"
       sodipodi:r1="11.913589"
       sodipodi:r2="5.9567943"
       sodipodi:arg1="0.82573662"
       sodipodi:arg2="1.4540551"
       inkscape:rounded="0"
       inkscape:randomized="0"
       d="m 91.503465,85.953784 -7.383775,-2.840803 -6.526161,4.472083 0.420053,-7.900244 -6.269899,-4.824799 7.643382,-2.041815 2.651151,-7.453973 4.303817,6.638332 7.9084,0.21799 -4.983477,6.144531 z"
       inkscape:transform-center-x="0.10031919"
       inkscape:transform-center-y="-0.16697875"
       transform="matrix(0.23394777,0,0,0.23124528,48.102358,59.623568)" />
    <path
       sodipodi:type="star"
       style="fill:#e6e6e6;fill-opacity:1;fill-rule:evenodd;stroke-width:0.499999"
       id="path17190-5"
       inkscape:flatsided="false"
       sodipodi:sides="5"
       sodipodi:cx="83.425865"
       sodipodi:cy="77.196732"
       sodipodi:r1="11.913589"
       sodipodi:r2="5.9567943"
       sodipodi:arg1="0.82573662"
       sodipodi:arg2="1.4540551"
       inkscape:rounded="0"
       inkscape:randomized="0"
       d="m 91.503465,85.953784 -7.383775,-2.840803 -6.526161,4.472083 0.420053,-7.900244 -6.269899,-4.824799 7.643382,-2.041815 2.651151,-7.453973 4.303817,6.638332 7.9084,0.21799 -4.983477,6.144531 z"
       inkscape:transform-center-x="0.10031919"
       inkscape:transform-center-y="-0.16697875"
       transform="matrix(0.23394777,0,0,0.23124528,47.879889,66.408872)" />
    <path
       sodipodi:type="star"
       style="fill:#e6e6e6;fill-opacity:1;fill-rule:evenodd;stroke-width:0.499999"
       id="path17190-2"
       inkscape:flatsided="false"
       sodipodi:sides="5"
       sodipodi:cx="83.425865"
       sodipodi:cy="77.196732"
       sodipodi:r1="11.913589"
       sodipodi:r2="5.9567943"
       sodipodi:arg1="0.82573662"
       sodipodi:arg2="1.4540551"
       inkscape:rounded="0"
       inkscape:randomized="0"
       d="m 91.503465,85.953784 -7.383775,-2.840803 -6.526161,4.472083 0.420053,-7.900244 -6.269899,-4.824799 7.643382,-2.041815 2.651151,-7.453973 4.303817,6.638332 7.9084,0.21799 -4.983477,6.144531 z"
       inkscape:transform-center-x="0.10031919"
       inkscape:transform-center-y="-0.16697875"
       transform="matrix(0.23394777,0,0,0.23124528,48.213592,73.30541)" />
  </g>
</svg>
