<?xml version="1.0" encoding="UTF-8" standalone="no"?>
<!-- Created with Inkscape (http://www.inkscape.org/) -->

<svg
   width="210mm"
   height="297mm"
   viewBox="0 0 210 297"
   version="1.1"
   id="svg807"
   inkscape:version="1.2 (dc2aedaf03, 2022-05-15)"
   sodipodi:docname="gomb.svg"
   xmlns:inkscape="http://www.inkscape.org/namespaces/inkscape"
   xmlns:sodipodi="http://sodipodi.sourceforge.net/DTD/sodipodi-0.dtd"
   xmlns="http://www.w3.org/2000/svg"
   xmlns:svg="http://www.w3.org/2000/svg">
  <sodipodi:namedview
     id="namedview809"
     pagecolor="#ffffff"
     bordercolor="#000000"
     borderopacity="0.25"
     inkscape:showpageshadow="2"
     inkscape:pageopacity="0.0"
     inkscape:pagecheckerboard="0"
     inkscape:deskcolor="#d1d1d1"
     inkscape:document-units="mm"
     showgrid="false"
     inkscape:zoom="0.84096521"
     inkscape:cx="436.40331"
     inkscape:cy="544.61231"
     inkscape:window-width="1280"
     inkscape:window-height="961"
     inkscape:window-x="-8"
     inkscape:window-y="-8"
     inkscape:window-maximized="1"
     inkscape:current-layer="layer1" />
  <defs
     id="defs804">
    <linearGradient
       id="linearGradient1500"
       inkscape:swatch="solid">
      <stop
         style="stop-color:#ff00ff;stop-opacity:1;"
         offset="0"
         id="stop1498" />
    </linearGradient>
    <filter
       inkscape:collect="always"
       style="color-interpolation-filters:sRGB"
       id="filter16025"
       x="-0.0055471616"
       y="-0.0057398082"
       width="1.0110942"
       height="1.0114795">
      <feGaussianBlur
         inkscape:collect="always"
         stdDeviation="0.013829113"
         id="feGaussianBlur16027" />
    </filter>
    <filter
       inkscape:collect="always"
       style="color-interpolation-filters:sRGB"
       id="filter16029"
       x="-0.013529386"
       y="-0.015337172"
       width="1.0270587"
       height="1.0306742">
      <feGaussianBlur
         inkscape:collect="always"
         stdDeviation="0.013829109"
         id="feGaussianBlur16031" />
    </filter>
    <filter
       inkscape:collect="always"
       style="color-interpolation-filters:sRGB"
       id="filter16033"
       x="-0.014038139"
       y="-0.01555472"
       width="1.0280762"
       height="1.0311093">
      <feGaussianBlur
         inkscape:collect="always"
         stdDeviation="0.013829109"
         id="feGaussianBlur16035" />
    </filter>
    <filter
       inkscape:collect="always"
       style="color-interpolation-filters:sRGB"
       id="filter16037"
       x="-0.02612183"
       y="-0.02612191"
       width="1.0522436"
       height="1.0522437">
      <feGaussianBlur
         inkscape:collect="always"
         stdDeviation="0.013829109"
         id="feGaussianBlur16039" />
    </filter>
    <filter
       inkscape:collect="always"
       style="color-interpolation-filters:sRGB"
       id="filter16041"
       x="-0.02612183"
       y="-0.02612191"
       width="1.0522436"
       height="1.0522437">
      <feGaussianBlur
         inkscape:collect="always"
         stdDeviation="0.013829109"
         id="feGaussianBlur16043" />
    </filter>
    <filter
       inkscape:collect="always"
       style="color-interpolation-filters:sRGB"
       id="filter16045"
       x="-0.02612183"
       y="-0.02612191"
       width="1.0522436"
       height="1.0522437">
      <feGaussianBlur
         inkscape:collect="always"
         stdDeviation="0.013829109"
         id="feGaussianBlur16047" />
    </filter>
    <filter
       inkscape:collect="always"
       style="color-interpolation-filters:sRGB"
       id="filter16049"
       x="-0.027012427"
       y="-0.025560781"
       width="1.0540248"
       height="1.0511214">
      <feGaussianBlur
         inkscape:collect="always"
         stdDeviation="0.013829109"
         id="feGaussianBlur16051" />
    </filter>
    <filter
       inkscape:collect="always"
       style="color-interpolation-filters:sRGB"
       id="filter16053"
       x="-0.050377682"
       y="-0.055810459"
       width="1.1007553"
       height="1.1116208">
      <feGaussianBlur
         inkscape:collect="always"
         stdDeviation="0.013829109"
         id="feGaussianBlur16055" />
    </filter>
    <filter
       inkscape:collect="always"
       style="color-interpolation-filters:sRGB"
       id="filter16057"
       x="-0.053590784"
       y="-0.057941876"
       width="1.1071815"
       height="1.1158837">
      <feGaussianBlur
         inkscape:collect="always"
         stdDeviation="0.013829109"
         id="feGaussianBlur16059" />
    </filter>
    <filter
       inkscape:collect="always"
       style="color-interpolation-filters:sRGB"
       id="filter16061"
       x="-0.052880292"
       y="-0.059411966"
       width="1.1057605"
       height="1.1188239">
      <feGaussianBlur
         inkscape:collect="always"
         stdDeviation="0.013829109"
         id="feGaussianBlur16063" />
    </filter>
    <filter
       inkscape:collect="always"
       style="color-interpolation-filters:sRGB"
       id="filter16065"
       x="-0.054404425"
       y="-0.057578218"
       width="1.1088088"
       height="1.1151563">
      <feGaussianBlur
         inkscape:collect="always"
         stdDeviation="0.013829109"
         id="feGaussianBlur16067" />
    </filter>
    <filter
       inkscape:collect="always"
       style="color-interpolation-filters:sRGB"
       id="filter16069"
       x="-0.05596784"
       y="-0.05596791"
       width="1.1119356"
       height="1.1119357">
      <feGaussianBlur
         inkscape:collect="always"
         stdDeviation="0.013829109"
         id="feGaussianBlur16071" />
    </filter>
    <filter
       inkscape:collect="always"
       style="color-interpolation-filters:sRGB"
       id="filter16073"
       x="-0.055153307"
       y="-0.056718656"
       width="1.1103065"
       height="1.1134372">
      <feGaussianBlur
         inkscape:collect="always"
         stdDeviation="0.013829109"
         id="feGaussianBlur16075" />
    </filter>
    <filter
       inkscape:collect="always"
       style="color-interpolation-filters:sRGB"
       id="filter16077"
       x="-0.062496863"
       y="-0.062488374"
       width="1.1254811"
       height="1.1249766">
      <feGaussianBlur
         inkscape:collect="always"
         stdDeviation="0.013829109"
         id="feGaussianBlur16079" />
    </filter>
    <filter
       inkscape:collect="always"
       style="color-interpolation-filters:sRGB"
       id="filter16081"
       x="-0.056463232"
       y="-0.05802961"
       width="1.1129264"
       height="1.1160591">
      <feGaussianBlur
         inkscape:collect="always"
         stdDeviation="0.013829109"
         id="feGaussianBlur16083" />
    </filter>
  </defs>
  <g
     inkscape:label="Réteg 1"
     inkscape:groupmode="layer"
     id="layer1">
    <g
       id="g16100"
       transform="translate(-2.2830639e-5,-2.9043317e-5)">
      <path
         style="opacity:1;fill:none;fill-opacity:1;fill-rule:evenodd;stroke:#c07373;stroke-width:1.11015;stroke-opacity:1;filter:url(#filter16025)"
         id="path1133"
         sodipodi:type="arc"
         sodipodi:cx="102.83606"
         sodipodi:cy="149.88765"
         sodipodi:rx="53.024658"
         sodipodi:ry="51.245731"
         sodipodi:start="0"
         sodipodi:end="6.2757393"
         sodipodi:arc-type="arc"
         d="M 155.86072,149.88765 A 53.024658,51.245731 0 0 1 102.93477,201.13329 53.024658,51.245731 0 0 1 49.811769,150.07844 53.024658,51.245731 0 0 1 102.53994,98.642717 53.024658,51.245731 0 0 1 155.85925,149.50608"
         sodipodi:open="true"
         transform="matrix(0.99991101,-0.01334026,0.01449833,0.99989489,0,0)" />
      <path
         style="opacity:1;fill:none;fill-opacity:1;fill-rule:evenodd;stroke:#e3ef44;stroke-width:1.36364;stroke-opacity:1;filter:url(#filter16029)"
         id="path11383"
         sodipodi:type="arc"
         sodipodi:cx="78.526184"
         sodipodi:cy="145.83037"
         sodipodi:rx="26.424488"
         sodipodi:ry="23.309921"
         sodipodi:start="0"
         sodipodi:end="6.2757393"
         sodipodi:open="true"
         sodipodi:arc-type="arc"
         d="M 104.95067,145.83037 A 26.424488,23.309921 0 0 1 78.575373,169.14025 26.424488,23.309921 0 0 1 52.101879,145.91715 26.424488,23.309921 0 0 1 78.378617,122.52081 26.424488,23.309921 0 0 1 104.94994,145.6568" />
      <path
         style="opacity:1;fill:none;fill-opacity:1;fill-rule:evenodd;stroke:#e3ef44;stroke-width:1.34304;stroke-opacity:1;filter:url(#filter16033)"
         id="path13151"
         sodipodi:type="arc"
         sodipodi:cx="131.47917"
         sodipodi:cy="145.93964"
         sodipodi:rx="25.099974"
         sodipodi:ry="22.652815"
         sodipodi:start="0"
         sodipodi:end="6.2757393"
         sodipodi:open="true"
         sodipodi:arc-type="arc"
         d="m 156.57915,145.93964 a 25.099974,22.652815 0 0 1 -25.05325,22.65277 25.099974,22.652815 0 0 1 -25.14653,-22.56844 25.099974,22.652815 0 0 1 24.95963,-22.7368 25.099974,22.652815 0 0 1 25.23945,22.48379" />
      <path
         style="opacity:1;fill:none;fill-opacity:1;fill-rule:evenodd;stroke:#44e0ef;stroke-width:1.265;stroke-opacity:1;filter:url(#filter16037)"
         id="path13985"
         sodipodi:type="arc"
         sodipodi:cx="65.912605"
         sodipodi:cy="144.88188"
         sodipodi:rx="12.742054"
         sodipodi:ry="12.742055"
         sodipodi:start="0"
         sodipodi:end="6.2757393"
         sodipodi:open="true"
         sodipodi:arc-type="arc"
         d="M 78.654659,144.88188 A 12.742054,12.742055 0 0 1 65.936325,157.62391 12.742054,12.742055 0 0 1 53.17064,144.92932 12.742054,12.742055 0 0 1 65.841448,132.14003 12.742054,12.742055 0 0 1 78.654306,144.78701" />
      <path
         style="opacity:1;fill:none;fill-opacity:1;fill-rule:evenodd;stroke:#44e0ef;stroke-width:1.265;stroke-opacity:1;filter:url(#filter16041)"
         id="path13985-9"
         sodipodi:type="arc"
         sodipodi:cx="90.924789"
         sodipodi:cy="145.35382"
         sodipodi:rx="12.742054"
         sodipodi:ry="12.742055"
         sodipodi:start="0"
         sodipodi:end="6.2757393"
         sodipodi:open="true"
         sodipodi:arc-type="arc"
         d="m 103.66684,145.35382 a 12.742054,12.742055 0 0 1 -12.718331,12.74203 12.742054,12.742055 0 0 1 -12.765685,-12.69459 12.742054,12.742055 0 0 1 12.670808,-12.7893 12.742054,12.742055 0 0 1 12.812858,12.64698" />
      <path
         style="opacity:1;fill:none;fill-opacity:1;fill-rule:evenodd;stroke:#44e0ef;stroke-width:1.265;stroke-opacity:1;filter:url(#filter16045)"
         id="path13985-1"
         sodipodi:type="arc"
         sodipodi:cx="120.49895"
         sodipodi:cy="147.24153"
         sodipodi:rx="12.742054"
         sodipodi:ry="12.742055"
         sodipodi:start="0"
         sodipodi:end="6.2757393"
         sodipodi:open="true"
         sodipodi:arc-type="arc"
         d="m 133.241,147.24153 a 12.742054,12.742055 0 0 1 -12.71833,12.74203 12.742054,12.742055 0 0 1 -12.76569,-12.69459 12.742054,12.742055 0 0 1 12.67081,-12.78929 12.742054,12.742055 0 0 1 12.81286,12.64697" />
      <path
         style="opacity:1;fill:none;fill-opacity:1;fill-rule:evenodd;stroke:#44e0ef;stroke-width:1.13068;stroke-opacity:1;filter:url(#filter16049)"
         id="path13985-1-6"
         sodipodi:type="arc"
         sodipodi:cx="144.25264"
         sodipodi:cy="148.02808"
         sodipodi:rx="11.078812"
         sodipodi:ry="11.708049"
         sodipodi:start="0"
         sodipodi:end="6.2757393"
         sodipodi:open="true"
         sodipodi:arc-type="arc"
         d="m 155.33145,148.02808 a 11.078812,11.708049 0 0 1 -11.05819,11.70802 11.078812,11.708049 0 0 1 -11.09936,-11.66443 11.078812,11.708049 0 0 1 11.01687,-11.75146 11.078812,11.708049 0 0 1 11.14037,11.62069" />
      <path
         style="opacity:1;fill:none;fill-opacity:1;fill-rule:evenodd;stroke:#000000;stroke-width:1.2362;stroke-opacity:1;filter:url(#filter16053)"
         id="path15810"
         sodipodi:type="arc"
         sodipodi:cx="59.305614"
         sodipodi:cy="144.56725"
         sodipodi:rx="6.4640832"
         sodipodi:ry="5.834846"
         sodipodi:start="0"
         sodipodi:end="6.2757393"
         sodipodi:open="true"
         sodipodi:arc-type="arc"
         d="m 65.769698,144.56725 a 6.4640832,5.834846 0 0 1 -6.452051,5.83483 6.4640832,5.834846 0 0 1 -6.476071,-5.81311 6.4640832,5.834846 0 0 1 6.42794,-5.85648 6.4640832,5.834846 0 0 1 6.500002,5.79131" />
      <path
         style="opacity:1;fill:none;fill-opacity:1;fill-rule:evenodd;stroke:#000000;stroke-width:1.28078;stroke-opacity:1;filter:url(#filter16057)"
         id="path15810-7"
         sodipodi:type="arc"
         sodipodi:cx="71.103813"
         sodipodi:cy="144.25266"
         sodipodi:rx="6.2844844"
         sodipodi:ry="5.8125567"
         sodipodi:start="0"
         sodipodi:end="6.2757393"
         sodipodi:open="true"
         sodipodi:arc-type="arc"
         d="m 77.388298,144.25266 a 6.2844844,5.8125567 0 0 1 -6.272786,5.81254 6.2844844,5.8125567 0 0 1 -6.29614,-5.7909 6.2844844,5.8125567 0 0 1 6.249346,-5.83411 6.2844844,5.8125567 0 0 1 6.319405,5.76919" />
      <path
         style="opacity:1;fill:none;fill-opacity:1;fill-rule:evenodd;stroke:#000000;stroke-width:1.14426;stroke-opacity:1;filter:url(#filter16061)"
         id="path15810-7-3"
         sodipodi:type="arc"
         sodipodi:cx="114.20657"
         sodipodi:cy="147.87077"
         sodipodi:rx="5.7235031"
         sodipodi:ry="5.0942659"
         sodipodi:start="0"
         sodipodi:end="6.2757393"
         sodipodi:open="true"
         sodipodi:arc-type="arc"
         d="m 119.93008,147.87077 a 5.7235031,5.0942659 0 0 1 -5.71285,5.09426 5.7235031,5.0942659 0 0 1 -5.73412,-5.07529 5.7235031,5.0942659 0 0 1 5.6915,-5.11315 5.7235031,5.0942659 0 0 1 5.75531,5.05625" />
      <path
         style="opacity:1;fill:none;fill-opacity:1;fill-rule:evenodd;stroke:#000000;stroke-width:1.17573;stroke-opacity:1;filter:url(#filter16065)"
         id="path15810-7-0"
         sodipodi:type="arc"
         sodipodi:cx="139.06145"
         sodipodi:cy="148.18538"
         sodipodi:rx="5.7077684"
         sodipodi:ry="5.3931499"
         sodipodi:start="0"
         sodipodi:end="6.2757393"
         sodipodi:open="true"
         sodipodi:arc-type="arc"
         d="m 144.76922,148.18538 a 5.7077684,5.3931499 0 0 1 -5.69715,5.39314 5.7077684,5.3931499 0 0 1 -5.71835,-5.37306 5.7077684,5.3931499 0 0 1 5.67585,-5.41315 5.7077684,5.3931499 0 0 1 5.73949,5.35291" />
      <path
         style="opacity:1;fill:none;fill-opacity:1;fill-rule:evenodd;stroke:#000000;stroke-width:1.17616;stroke-opacity:1;filter:url(#filter16069)"
         id="path15810-7-6"
         sodipodi:type="arc"
         sodipodi:cx="149.28654"
         sodipodi:cy="148.6573"
         sodipodi:rx="5.5502453"
         sodipodi:ry="5.5502453"
         sodipodi:start="0"
         sodipodi:end="6.2757393"
         sodipodi:open="true"
         sodipodi:arc-type="arc"
         d="m 154.83679,148.6573 a 5.5502453,5.5502453 0 0 1 -5.53991,5.55024 5.5502453,5.5502453 0 0 1 -5.56054,-5.52957 5.5502453,5.5502453 0 0 1 5.51921,-5.57083 5.5502453,5.5502453 0 0 1 5.58109,5.50884" />
      <path
         style="opacity:1;fill:none;fill-opacity:1;fill-rule:evenodd;stroke:#000000;stroke-width:1.19113;stroke-opacity:1;filter:url(#filter16073)"
         id="path15810-7-1"
         sodipodi:type="arc"
         sodipodi:cx="124.9036"
         sodipodi:cy="147.08421"
         sodipodi:rx="5.7000718"
         sodipodi:ry="5.5427628"
         sodipodi:start="0"
         sodipodi:end="6.2757393"
         sodipodi:open="true"
         sodipodi:arc-type="arc"
         d="m 130.60367,147.08421 a 5.7000718,5.5427628 0 0 1 -5.68946,5.54276 5.7000718,5.5427628 0 0 1 -5.71064,-5.52212 5.7000718,5.5427628 0 0 1 5.6682,-5.56331 5.7000718,5.5427628 0 0 1 5.73175,5.5014" />
      <path
         style="opacity:1;fill:none;fill-opacity:1;fill-rule:evenodd;stroke:#000000;stroke-width:1.33967;stroke-opacity:1;filter:url(#filter16077)"
         id="path15810-2"
         sodipodi:type="arc"
         sodipodi:cx="84.630493"
         sodipodi:cy="144.72456"
         sodipodi:rx="5.6244874"
         sodipodi:ry="5.6252594"
         sodipodi:start="0"
         sodipodi:end="6.2746564"
         sodipodi:arc-type="slice"
         d="m 90.254981,144.72456 a 5.6244874,5.6252594 0 0 1 -5.612495,5.62525 5.6244874,5.6252594 0 0 1 -5.636429,-5.60126 5.6244874,5.6252594 0 0 1 5.588458,-5.64913 5.6244874,5.6252594 0 0 1 5.660261,5.57717 l -5.624283,0.048 z" />
      <path
         style="opacity:1;fill:none;fill-opacity:1;fill-rule:evenodd;stroke:#000000;stroke-width:1.24989;stroke-opacity:1;filter:url(#filter16081)"
         id="path15810-8"
         sodipodi:type="arc"
         sodipodi:cx="96.745232"
         sodipodi:cy="145.0392"
         sodipodi:rx="5.8280015"
         sodipodi:ry="5.670692"
         sodipodi:start="0"
         sodipodi:end="6.2757393"
         sodipodi:open="true"
         sodipodi:arc-type="arc"
         d="m 102.57323,145.0392 a 5.8280015,5.670692 0 0 1 -5.81715,5.67068 5.8280015,5.670692 0 0 1 -5.838809,-5.64957 5.8280015,5.670692 0 0 1 5.795414,-5.69171 5.8280015,5.670692 0 0 1 5.860385,5.62838" />
    </g>
  </g>
</svg>
