<?xml version="1.0" encoding="UTF-8" standalone="no"?>
<!-- Created with Inkscape (http://www.inkscape.org/) -->

<svg
   width="210mm"
   height="297mm"
   viewBox="0 0 210 297"
   version="1.1"
   id="svg2241"
   inkscape:version="1.2 (dc2aedaf03, 2022-05-15)"
   sodipodi:docname="gyufa.svg"
   xmlns:inkscape="http://www.inkscape.org/namespaces/inkscape"
   xmlns:sodipodi="http://sodipodi.sourceforge.net/DTD/sodipodi-0.dtd"
   xmlns="http://www.w3.org/2000/svg"
   xmlns:svg="http://www.w3.org/2000/svg">
  <sodipodi:namedview
     id="namedview2243"
     pagecolor="#ffffff"
     bordercolor="#000000"
     borderopacity="0.25"
     inkscape:showpageshadow="2"
     inkscape:pageopacity="0.0"
     inkscape:pagecheckerboard="0"
     inkscape:deskcolor="#d1d1d1"
     inkscape:document-units="mm"
     showgrid="false"
     inkscape:zoom="0.74564394"
     inkscape:cx="128.74778"
     inkscape:cy="561.9304"
     inkscape:window-width="1920"
     inkscape:window-height="1017"
     inkscape:window-x="-8"
     inkscape:window-y="-8"
     inkscape:window-maximized="1"
     inkscape:current-layer="layer1" />
  <defs
     id="defs2238" />
  <g
     inkscape:label="Réteg 1"
     inkscape:groupmode="layer"
     id="layer1">
    <path
       style="fill:#000000;stroke:#000000;stroke-width:0.584924;stroke-dasharray:none;stroke-opacity:1"
       id="path2995"
       sodipodi:type="arc"
       sodipodi:cx="171.58945"
       sodipodi:cy="75.758064"
       sodipodi:rx="18.582561"
       sodipodi:ry="9.0301151"
       sodipodi:start="0"
       sodipodi:end="6.261896"
       sodipodi:arc-type="slice"
       d="m 190.17201,75.758064 a 18.582561,9.0301151 0 0 1 -18.48366,9.029987 18.582561,9.0301151 0 0 1 -18.68041,-8.933866 18.582561,9.0301151 0 0 1 18.28481,-9.125085 18.582561,9.0301151 0 0 1 18.87505,8.836734 l -18.57835,0.19223 z" />
    <rect
       style="fill:#ffff00;stroke:#000000;stroke-width:0.501447;stroke-dasharray:none;stroke-opacity:1"
       id="rect2245"
       width="124.43848"
       height="17.258097"
       x="38.650913"
       y="67.275269" />
    <path
       style="fill:#ffffff;stroke:#000000;stroke-width:0.547;stroke-dasharray:none;stroke-opacity:1"
       id="path2997"
       sodipodi:type="arc"
       sodipodi:cx="178.48387"
       sodipodi:cy="73.274193"
       sodipodi:rx="3.9032257"
       sodipodi:ry="4.7903223"
       sodipodi:start="0"
       sodipodi:end="6.261896"
       sodipodi:arc-type="slice"
       d="m 182.3871,73.274193 a 3.9032257,4.7903223 0 0 1 -3.88245,4.790254 3.9032257,4.7903223 0 0 1 -3.92378,-4.739264 3.9032257,4.7903223 0 0 1 3.84068,-4.840702 3.9032257,4.7903223 0 0 1 3.96466,4.687737 l -3.90234,0.101975 z" />
  </g>
</svg>
