<?xml version="1.0" encoding="UTF-8" standalone="no"?>
<!-- Created with Inkscape (http://www.inkscape.org/) -->

<svg
   width="210mm"
   height="297mm"
   viewBox="0 0 210 297"
   version="1.1"
   id="svg5"
   inkscape:version="1.2 (dc2aedaf03, 2022-05-15)"
   sodipodi:docname="zaszlo.svg"
   xmlns:inkscape="http://www.inkscape.org/namespaces/inkscape"
   xmlns:sodipodi="http://sodipodi.sourceforge.net/DTD/sodipodi-0.dtd"
   xmlns="http://www.w3.org/2000/svg"
   xmlns:svg="http://www.w3.org/2000/svg">
  <sodipodi:namedview
     id="namedview7"
     pagecolor="#ffffff"
     bordercolor="#000000"
     borderopacity="0.25"
     inkscape:showpageshadow="2"
     inkscape:pageopacity="0.0"
     inkscape:pagecheckerboard="0"
     inkscape:deskcolor="#d1d1d1"
     inkscape:document-units="mm"
     showgrid="false"
     inkscape:zoom="0.74564394"
     inkscape:cx="128.74778"
     inkscape:cy="561.9304"
     inkscape:window-width="1920"
     inkscape:window-height="1017"
     inkscape:window-x="-8"
     inkscape:window-y="-8"
     inkscape:window-maximized="1"
     inkscape:current-layer="layer1" />
  <defs
     id="defs2" />
  <g
     inkscape:label="Réteg 1"
     inkscape:groupmode="layer"
     id="layer1">
    <rect
       style="fill:#003399;fill-opacity:1;stroke-width:0.264583"
       id="rect118"
       width="150"
       height="100"
       x="30"
       y="98.5" />
    <g
       id="g9034"
       transform="translate(-0.02471301,0.606228)">
      <path
         sodipodi:type="star"
         style="fill:#ffcc00;fill-opacity:1;stroke-width:0.264583"
         id="path2411"
         inkscape:flatsided="false"
         sodipodi:sides="5"
         sodipodi:cx="62.096775"
         sodipodi:cy="117.45161"
         sodipodi:r1="27.652388"
         sodipodi:r2="13.826194"
         sodipodi:arg1="-0.15460055"
         sodipodi:arg2="0.47371799"
         inkscape:rounded="0"
         inkscape:randomized="0"
         d="m 89.419356,113.19354 -15.018951,10.56555 0.189172,18.36202 -14.689543,-11.01894 -17.404864,5.85409 5.940315,-17.37562 -10.94597,-14.744 18.360859,0.28021 10.639883,-14.966376 5.40732,17.548806 z"
         inkscape:transform-center-x="-0.024710967"
         inkscape:transform-center-y="-0.60622854"
         transform="matrix(0.22570715,-0.03496766,0.03339319,0.23634912,121.62867,122.91179)" />
      <path
         sodipodi:type="star"
         style="fill:#ffcc00;fill-opacity:1;stroke-width:0.264583"
         id="path2411-8"
         inkscape:flatsided="false"
         sodipodi:sides="5"
         sodipodi:cx="62.096775"
         sodipodi:cy="117.45161"
         sodipodi:r1="27.652388"
         sodipodi:r2="13.826194"
         sodipodi:arg1="-0.15460055"
         sodipodi:arg2="0.47371799"
         inkscape:rounded="0"
         inkscape:randomized="0"
         d="m 89.419356,113.19354 -15.018951,10.56555 0.189172,18.36202 -14.689543,-11.01894 -17.404864,5.85409 5.940315,-17.37562 -10.94597,-14.744 18.360859,0.28021 10.639883,-14.966376 5.40732,17.548806 z"
         inkscape:transform-center-x="-0.024710967"
         inkscape:transform-center-y="-0.60622854"
         transform="matrix(0.22570715,-0.03496766,0.03339319,0.23634912,116.99764,139.57348)" />
      <path
         sodipodi:type="star"
         style="fill:#ffcc00;fill-opacity:1;stroke-width:0.264583"
         id="path2411-2"
         inkscape:flatsided="false"
         sodipodi:sides="5"
         sodipodi:cx="62.096775"
         sodipodi:cy="117.45161"
         sodipodi:r1="27.652388"
         sodipodi:r2="13.826194"
         sodipodi:arg1="-0.15460055"
         sodipodi:arg2="0.47371799"
         inkscape:rounded="0"
         inkscape:randomized="0"
         d="m 89.419356,113.19354 -15.018951,10.56555 0.189172,18.36202 -14.689543,-11.01894 -17.404864,5.85409 5.940315,-17.37562 -10.94597,-14.744 18.360859,0.28021 10.639883,-14.966376 5.40732,17.548806 z"
         inkscape:transform-center-x="-0.024710967"
         inkscape:transform-center-y="-0.60622854"
         transform="matrix(0.22570715,-0.03496766,0.03339319,0.23634912,104.34545,151.77068)" />
      <path
         sodipodi:type="star"
         style="fill:#ffcc00;fill-opacity:1;stroke-width:0.264583"
         id="path2411-9"
         inkscape:flatsided="false"
         sodipodi:sides="5"
         sodipodi:cx="62.096775"
         sodipodi:cy="117.45161"
         sodipodi:r1="27.652388"
         sodipodi:r2="13.826194"
         sodipodi:arg1="-0.15460055"
         sodipodi:arg2="0.47371799"
         inkscape:rounded="0"
         inkscape:randomized="0"
         d="m 89.419356,113.19354 -15.018951,10.56555 0.189172,18.36202 -14.689543,-11.01894 -17.404864,5.85409 5.940315,-17.37562 -10.94597,-14.744 18.360859,0.28021 10.639883,-14.966376 5.40732,17.548806 z"
         inkscape:transform-center-x="-0.024710967"
         inkscape:transform-center-y="-0.60622854"
         transform="matrix(0.22570715,-0.03496766,0.03339319,0.23634912,87.062229,156.23516)" />
      <path
         sodipodi:type="star"
         style="fill:#ffcc00;fill-opacity:1;stroke-width:0.264583"
         id="path2411-4"
         inkscape:flatsided="false"
         sodipodi:sides="5"
         sodipodi:cx="62.096775"
         sodipodi:cy="117.45161"
         sodipodi:r1="27.652388"
         sodipodi:r2="13.826194"
         sodipodi:arg1="-0.15460055"
         sodipodi:arg2="0.47371799"
         inkscape:rounded="0"
         inkscape:randomized="0"
         d="m 89.419356,113.19354 -15.018951,10.56555 0.189172,18.36202 -14.689543,-11.01894 -17.404864,5.85409 5.940315,-17.37562 -10.94597,-14.744 18.360859,0.28021 10.639883,-14.966376 5.40732,17.548806 z"
         inkscape:transform-center-x="-0.024710967"
         inkscape:transform-center-y="-0.60622854"
         transform="matrix(0.22570715,-0.03496766,0.03339319,0.23634912,69.779011,151.77067)" />
      <path
         sodipodi:type="star"
         style="fill:#ffcc00;fill-opacity:1;stroke-width:0.264583"
         id="path2411-6"
         inkscape:flatsided="false"
         sodipodi:sides="5"
         sodipodi:cx="62.096775"
         sodipodi:cy="117.45161"
         sodipodi:r1="27.652388"
         sodipodi:r2="13.826194"
         sodipodi:arg1="-0.15460055"
         sodipodi:arg2="0.47371799"
         inkscape:rounded="0"
         inkscape:randomized="0"
         d="m 89.419356,113.19354 -15.018951,10.56555 0.189172,18.36202 -14.689543,-11.01894 -17.404864,5.85409 5.940315,-17.37562 -10.94597,-14.744 18.360859,0.28021 10.639883,-14.966376 5.40732,17.548806 z"
         inkscape:transform-center-x="-0.024710967"
         inkscape:transform-center-y="-0.60622854"
         transform="matrix(0.22570715,-0.03496766,0.03339319,0.23634912,57.12682,139.57348)" />
      <path
         sodipodi:type="star"
         style="fill:#ffcc00;fill-opacity:1;stroke-width:0.264583"
         id="path2411-66"
         inkscape:flatsided="false"
         sodipodi:sides="5"
         sodipodi:cx="62.096775"
         sodipodi:cy="117.45161"
         sodipodi:r1="27.652388"
         sodipodi:r2="13.826194"
         sodipodi:arg1="-0.15460055"
         sodipodi:arg2="0.47371799"
         inkscape:rounded="0"
         inkscape:randomized="0"
         d="m 89.419356,113.19354 -15.018951,10.56555 0.189172,18.36202 -14.689543,-11.01894 -17.404864,5.85409 5.940315,-17.37562 -10.94597,-14.744 18.360859,0.28021 10.639883,-14.966376 5.40732,17.548806 z"
         inkscape:transform-center-x="-0.024710967"
         inkscape:transform-center-y="-0.60622854"
         transform="matrix(0.22570715,-0.03496766,0.03339319,0.23634912,52.495793,122.91179)" />
      <path
         sodipodi:type="star"
         style="fill:#ffcc00;fill-opacity:1;stroke-width:0.264583"
         id="path2411-3"
         inkscape:flatsided="false"
         sodipodi:sides="5"
         sodipodi:cx="62.096775"
         sodipodi:cy="117.45161"
         sodipodi:r1="27.652388"
         sodipodi:r2="13.826194"
         sodipodi:arg1="-0.15460055"
         sodipodi:arg2="0.47371799"
         inkscape:rounded="0"
         inkscape:randomized="0"
         d="m 89.419356,113.19354 -15.018951,10.56555 0.189172,18.36202 -14.689543,-11.01894 -17.404864,5.85409 5.940315,-17.37562 -10.94597,-14.744 18.360859,0.28021 10.639883,-14.966376 5.40732,17.548806 z"
         inkscape:transform-center-x="-0.024710967"
         inkscape:transform-center-y="-0.60622854"
         transform="matrix(0.22570715,-0.03496766,0.03339319,0.23634912,57.12682,106.25011)" />
      <path
         sodipodi:type="star"
         style="fill:#ffcc00;fill-opacity:1;stroke-width:0.264583"
         id="path2411-80"
         inkscape:flatsided="false"
         sodipodi:sides="5"
         sodipodi:cx="62.096775"
         sodipodi:cy="117.45161"
         sodipodi:r1="27.652388"
         sodipodi:r2="13.826194"
         sodipodi:arg1="-0.15460055"
         sodipodi:arg2="0.47371799"
         inkscape:rounded="0"
         inkscape:randomized="0"
         d="m 89.419356,113.19354 -15.018951,10.56555 0.189172,18.36202 -14.689543,-11.01894 -17.404864,5.85409 5.940315,-17.37562 -10.94597,-14.744 18.360859,0.28021 10.639883,-14.966376 5.40732,17.548806 z"
         inkscape:transform-center-x="-0.024710967"
         inkscape:transform-center-y="-0.60622854"
         transform="matrix(0.22570715,-0.03496766,0.03339319,0.23634912,69.779011,94.052916)" />
      <path
         sodipodi:type="star"
         style="fill:#ffcc00;fill-opacity:1;stroke-width:0.264583"
         id="path2411-1"
         inkscape:flatsided="false"
         sodipodi:sides="5"
         sodipodi:cx="62.096775"
         sodipodi:cy="117.45161"
         sodipodi:r1="27.652388"
         sodipodi:r2="13.826194"
         sodipodi:arg1="-0.15460055"
         sodipodi:arg2="0.47371799"
         inkscape:rounded="0"
         inkscape:randomized="0"
         d="m 89.419356,113.19354 -15.018951,10.56555 0.189172,18.36202 -14.689543,-11.01894 -17.404864,5.85409 5.940315,-17.37562 -10.94597,-14.744 18.360859,0.28021 10.639883,-14.966376 5.40732,17.548806 z"
         inkscape:transform-center-x="-0.024710967"
         inkscape:transform-center-y="-0.60622854"
         transform="matrix(0.22570715,-0.03496766,0.03339319,0.23634912,87.062229,89.588431)" />
      <path
         sodipodi:type="star"
         style="fill:#ffcc00;fill-opacity:1;stroke-width:0.264583"
         id="path2411-0"
         inkscape:flatsided="false"
         sodipodi:sides="5"
         sodipodi:cx="62.096775"
         sodipodi:cy="117.45161"
         sodipodi:r1="27.652388"
         sodipodi:r2="13.826194"
         sodipodi:arg1="-0.15460055"
         sodipodi:arg2="0.47371799"
         inkscape:rounded="0"
         inkscape:randomized="0"
         d="m 89.419356,113.19354 -15.018951,10.56555 0.189172,18.36202 -14.689543,-11.01894 -17.404864,5.85409 5.940315,-17.37562 -10.94597,-14.744 18.360859,0.28021 10.639883,-14.966376 5.40732,17.548806 z"
         inkscape:transform-center-x="-0.024710967"
         inkscape:transform-center-y="-0.60622854"
         transform="matrix(0.22570715,-0.03496766,0.03339319,0.23634912,104.34545,94.052916)" />
      <path
         sodipodi:type="star"
         style="fill:#ffcc00;fill-opacity:1;stroke-width:0.264583"
         id="path2411-7"
         inkscape:flatsided="false"
         sodipodi:sides="5"
         sodipodi:cx="62.096775"
         sodipodi:cy="117.45161"
         sodipodi:r1="27.652388"
         sodipodi:r2="13.826194"
         sodipodi:arg1="-0.15460055"
         sodipodi:arg2="0.47371799"
         inkscape:rounded="0"
         inkscape:randomized="0"
         d="m 89.419356,113.19354 -15.018951,10.56555 0.189172,18.36202 -14.689543,-11.01894 -17.404864,5.85409 5.940315,-17.37562 -10.94597,-14.744 18.360859,0.28021 10.639883,-14.966376 5.40732,17.548806 z"
         inkscape:transform-center-x="-0.024710967"
         inkscape:transform-center-y="-0.60622854"
         transform="matrix(0.22570715,-0.03496766,0.03339319,0.23634912,116.99765,106.25013)" />
    </g>
  </g>
</svg>
